<?xml version="1.0" encoding="UTF-8" standalone="no"?>
<svg
   viewBox="0 0 24 24"
   version="1.1"
   id="svg1"
   sodipodi:docname="researchgate_white.svg"
   inkscape:version="1.3.2 (091e20e, 2023-11-25, custom)"
   xmlns:inkscape="http://www.inkscape.org/namespaces/inkscape"
   xmlns:sodipodi="http://sodipodi.sourceforge.net/DTD/sodipodi-0.dtd"
   xmlns="http://www.w3.org/2000/svg"
   xmlns:svg="http://www.w3.org/2000/svg">
  <defs
     id="defs1" />
  <sodipodi:namedview
     id="namedview1"
     pagecolor="#ffffff"
     bordercolor="#000000"
     borderopacity="0.25"
     inkscape:showpageshadow="2"
     inkscape:pageopacity="0.0"
     inkscape:pagecheckerboard="0"
     inkscape:deskcolor="#d1d1d1"
     inkscape:zoom="34.029514"
     inkscape:cx="9.6827713"
     inkscape:cy="12.621397"
     inkscape:window-width="2560"
     inkscape:window-height="1351"
     inkscape:window-x="-9"
     inkscape:window-y="-9"
     inkscape:window-maximized="1"
     inkscape:current-layer="svg1" />
  <path
     d="m 15.356271,-7.9495984e-5 c -0.63271,0 -1.166413,0.146962005984 -1.603432,0.437018615984 -0.435472,0.29160357 -0.75028,0.72398128 -0.938236,1.29945358 a 2.4697352,2.4697352 0 0 0 -0.08663,0.3380126 6.4701959,6.4701959 0 0 0 -0.06034,0.4099467 6.9613584,6.9613584 0 0 0 -0.03868,0.562323 c -0.0078,0.2181226 -0.01007,0.4803338 -0.01007,0.7858601 a 24.071604,24.073151 0 0 0 0.01082,0.7866334 6.9613584,6.9613584 0 0 0 0.03868,0.5623231 6.146106,6.146106 0 0 0 0.05956,0.4099466 h -0.0038 a 2.5787965,2.5787965 0 0 0 0.0874,0.3387861 c 0.189504,0.5746989 0.502765,1.0078501 0.93901,1.2994536 0.43702,0.2908301 0.971497,0.4362452 1.60498,0.4362452 0.618787,0 1.188072,-0.1647522 1.628185,-0.4664111 0.440886,-0.3016588 0.727075,-0.7085115 0.908844,-1.276249 0.05878,-0.1817687 0.104421,-0.4316042 0.136906,-0.7193403 a 8.4309786,8.4309786 0 0 0 0.03326,-0.9335956 v -0.634257 c 0,-0.073481 -0.03635,-0.1098349 -0.108287,-0.1098349 H 15.58445 c -0.07271,0 -0.108289,0.036354 -0.108289,0.1090614 v 0.7394509 c 0,0.072707 0.03559,0.1082878 0.108289,0.1082878 h 1.288624 c 0.04332,0 0.06498,0.023205 0.06498,0.06652 0,0.2784543 0,0.4795602 -0.02784,0.6690638 -0.02939,0.1887302 -0.07735,0.3457475 -0.113702,0.4687316 -0.08354,0.2977914 -0.269173,0.5135935 -0.493483,0.6775722 -0.224311,0.1639786 -0.570832,0.2707195 -0.949066,0.2707195 -0.421549,0 -0.696908,-0.1160227 -0.935915,-0.27304 C 14.181349,6.2055848 14.018144,6.0114402 13.8998,5.654864 A 2.4256466,2.4256466 0 0 1 13.786099,5.065469 13.432327,13.433102 0 0 1 13.7598,4.5580633 C 13.7521,4.3569574 13.74897,4.1156303 13.74897,3.8317616 a 20.420758,20.422305 0 0 1 0.01082,-0.7255283 12.237295,12.238068 0 0 1 0.02708,-0.5074056 2.4674149,2.4674149 0 0 1 0.114476,-0.5878481 1.4618853,1.4618853 0 0 1 0.573925,-0.7812191 c 0.266079,-0.1887301 0.458676,-0.27226647 0.879452,-0.27226647 0.39293,0 0.63039,0.0742545 0.884866,0.23436567 0.25525,0.1601113 0.4084,0.3805544 0.590942,0.715473 0.03635,0.072707 0.08586,0.091271 0.15315,0.054144 L 17.791199,1.628878 c 0.05801,-0.037127 0.06961,-0.08895 0.03248,-0.1539233 A 2.7450957,2.7450957 0 0 0 17.463243,0.90102968 2.3204528,2.3204528 0 0 0 16.938047,0.43152473 2.5625534,2.5625534 0 0 0 16.239591,0.11439617 3.146534,3.146534 0 0 0 15.356271,-7.9495984e-5 Z M 6.5625291,4.5139747 c -1.3071884,0 -2.3482982,0.06652 -3.3236619,0.06652 -0.886413,0 -1.7720524,0 -2.32586719,-0.022431 v 0.642765 L 1.7545509,5.3555256 C 2.3300231,5.4669074 2.6626215,5.7329859 2.6626215,7.106694 v 8.73109 c 0,1.374482 -0.3325984,1.639788 -0.9080706,1.750396 l -0.84155089,0.154696 v 0.643539 c 0.59790339,-0.02244 1.63978659,-0.06652 2.68012299,-0.06652 0.9977947,0 2.282552,0.04408 2.8363668,0.06652 V 17.74365 L 5.2769983,17.588953 C 4.6790949,17.500002 4.3689278,17.212266 4.3689278,15.837784 v -3.700348 c 0.5321571,0.04409 0.9977946,0.04409 1.7063062,0.04409 1.3520506,2.415591 2.6375813,4.232507 3.368524,5.074057 0.665196,0.798236 1.683875,1.307962 2.969406,1.307962 0.376687,0 0.775805,-0.06652 1.019452,-0.177901 v -0.575473 c -0.797462,0 -1.595698,-0.553815 -2.171943,-1.174149 C 10.286082,15.571706 8.978894,13.8654 7.8921486,11.937876 9.6866321,11.516327 11.017025,9.8324525 11.017025,8.1478038 c 0,-2.4813376 -1.9275228,-3.6338291 -4.4537225,-3.6338291 z M 6.1641847,5.5117694 c 1.8610031,0 2.9694061,0.9745902 2.9694061,2.7474161 0,1.7503945 -1.1965802,2.9253175 -3.168965,2.9253175 -0.7533737,0 -1.0859719,-0.0232 -1.595698,-0.06652 V 5.5566315 C 4.8794273,5.510996 5.5655079,5.510996 6.1634112,5.510996 Z"
     id="path1"
     style="fill:#ffffff;fill-opacity:1;stroke-width:1" />
</svg>
